<?xml version="1.0" encoding="UTF-8" standalone="no"?><!DOCTYPE svg PUBLIC "-//W3C//DTD SVG 1.1//EN" "http://www.w3.org/Graphics/SVG/1.1/DTD/svg11.dtd"><svg width="100%" height="100%" viewBox="0 0 300 300" version="1.1" xmlns="http://www.w3.org/2000/svg" xmlns:xlink="http://www.w3.org/1999/xlink" xml:space="preserve" xmlns:serif="http://www.serif.com/" style="fill-rule:evenodd;clip-rule:evenodd;stroke-linejoin:round;stroke-miterlimit:2;"><g id="_7e319840-739a-a0f1-f316-ea813584ba79" serif:id="7e319840-739a-a0f1-f316-ea813584ba79"><path d="M44.336,262.7c-4.069,0 -7.476,-1.372 -10.22,-4.116c-2.744,-2.744 -4.116,-6.169 -4.116,-10.276c-0,-4.032 1.372,-7.429 4.116,-10.192c2.744,-2.744 6.151,-4.116 10.22,-4.116c4.088,0 7.597,1.279 10.528,3.836l-3.808,4.172c-1.96,-1.531 -4.2,-2.296 -6.72,-2.296c-2.576,0.019 -4.657,0.831 -6.244,2.436c-1.568,1.587 -2.352,3.621 -2.352,6.104c-0,2.669 0.793,4.788 2.38,6.356c1.587,1.568 3.668,2.352 6.244,2.352c2.072,-0 3.659,-0.401 4.76,-1.204l-0,-4.928l-3.808,0.028l-0,-5.376l9.548,-0l-0,13.412c-2.912,2.539 -6.421,3.808 -10.528,3.808Zm20.804,-19.152l-0,2.128c1.381,-1.4 3.052,-2.1 5.012,-2.1c0.616,0 1.204,0.047 1.764,0.14l-0.84,5.292c-0.616,-0.56 -1.503,-0.859 -2.66,-0.896c-1.307,0.093 -2.399,1.036 -3.276,2.828l-0,11.76l-5.348,0l-0,-18.564l5.348,-0.588Zm18.956,19.348c-2.781,-0 -5.105,-0.933 -6.972,-2.8c-1.848,-1.867 -2.772,-4.181 -2.772,-6.944c-0,-2.781 0.924,-5.105 2.772,-6.972c1.867,-1.867 4.191,-2.8 6.972,-2.8c2.781,0 5.105,0.933 6.972,2.8c1.867,1.867 2.8,4.191 2.8,6.972c-0,2.781 -0.933,5.096 -2.8,6.944c-1.867,1.867 -4.191,2.8 -6.972,2.8Zm-0,-4.62c1.437,0 2.613,-0.495 3.528,-1.484c0.915,-0.971 1.372,-2.184 1.372,-3.64c-0,-1.456 -0.457,-2.669 -1.372,-3.64c-0.915,-0.989 -2.1,-1.484 -3.556,-1.484c-1.437,-0 -2.613,0.495 -3.528,1.484c-0.896,0.971 -1.344,2.184 -1.344,3.64c-0,1.456 0.448,2.669 1.344,3.64c0.915,0.989 2.1,1.484 3.556,1.484Zm24.948,-2.352l-0,-12.376l5.348,0l-0,19.152l-5.348,0l-0,-1.736c-1.288,1.157 -2.819,1.736 -4.592,1.736c-2.427,0 -4.275,-0.737 -5.544,-2.212c-1.288,-1.475 -1.932,-3.164 -1.932,-5.068l-0,-11.872l5.376,0l-0,10.528c-0,1.269 0.317,2.259 0.952,2.968c0.635,0.709 1.596,1.083 2.884,1.12c1.12,-0.075 2.072,-0.821 2.856,-2.24Zm15.26,14.84l-5.348,-0.028l-0,-26.6l5.348,-0.588l-0,1.54c1.437,-1.027 2.847,-1.54 4.228,-1.54c2.931,0 5.255,0.961 6.972,2.884c1.736,1.904 2.604,4.135 2.604,6.692c-0,2.557 -0.868,4.788 -2.604,6.692c-1.717,1.923 -4.041,2.884 -6.972,2.884c-1.923,-0.131 -3.332,-0.653 -4.228,-1.568l-0,9.632Zm-0,-19.376l-0,3.108c0.261,2.147 1.605,3.407 4.032,3.78c3.061,-0.243 4.788,-1.829 5.18,-4.76c-0.131,-3.584 -1.857,-5.441 -5.18,-5.572c-2.427,0.392 -3.771,1.54 -4.032,3.444Zm26.264,11.508c-2.781,0 -5.096,-0.933 -6.944,-2.8c-1.867,-1.867 -2.8,-4.181 -2.8,-6.944c-0,-2.781 0.933,-5.105 2.8,-6.972c1.848,-1.867 4.163,-2.8 6.944,-2.8c2.781,0 5.105,0.933 6.972,2.8c1.867,1.867 2.8,4.191 2.8,6.972c-0,2.781 -0.933,5.096 -2.8,6.944c-1.867,1.867 -4.191,2.8 -6.972,2.8Zm-0,-4.62c1.456,0 2.632,-0.495 3.528,-1.484c0.915,-0.971 1.372,-2.184 1.372,-3.64c-0,-1.456 -0.457,-2.669 -1.372,-3.64c-0.896,-0.989 -2.081,-1.484 -3.556,-1.484c-1.437,0 -2.613,0.495 -3.528,1.484c-0.896,0.971 -1.344,2.184 -1.344,3.64c-0,1.456 0.448,2.669 1.344,3.64c0.915,0.989 2.1,1.484 3.556,1.484Zm18.704,-7.812l-0,12.236l-5.376,0l-0,-18.564l5.376,-0.588l-0,1.708c1.195,-1.12 2.725,-1.68 4.592,-1.68c2.408,0 4.256,0.728 5.544,2.184c1.4,-1.456 3.5,-2.184 6.3,-2.184c2.427,0 4.284,0.728 5.572,2.184c1.269,1.475 1.904,3.173 1.904,5.096l-0,11.844l-5.348,0l-0,-10.528c-0,-1.269 -0.289,-2.259 -0.868,-2.968c-0.579,-0.691 -1.512,-1.055 -2.8,-1.092c-1.064,0.075 -1.979,0.775 -2.744,2.1c-0.075,0.392 -0.112,0.793 -0.112,1.204l-0,11.284l-5.348,0l-0,-10.528c-0,-1.269 -0.289,-2.259 -0.868,-2.968c-0.579,-0.691 -1.512,-1.055 -2.8,-1.092c-1.176,0.075 -2.184,0.859 -3.024,2.352Zm31.108,-1.344l-2.1,-3.248c2.427,-1.531 5.236,-2.296 8.428,-2.296c2.296,0 4.107,0.635 5.432,1.904c1.344,1.288 2.016,3.201 2.016,5.74l-0,11.48l-5.348,0l0,-1.512c-1.568,1.008 -2.977,1.512 -4.228,1.512c-2.539,0 -4.452,-0.541 -5.74,-1.624c-1.269,-1.083 -1.904,-2.576 -1.904,-4.48c0,-1.792 0.607,-3.388 1.82,-4.788c1.195,-1.4 3.136,-2.1 5.824,-2.1c1.251,0 2.66,0.383 4.228,1.148l0,-0.588c-0.037,-1.4 -1.064,-2.165 -3.08,-2.296c-2.296,0 -4.079,0.383 -5.348,1.148Zm8.428,7.84l0,-2.156c-0.504,-0.989 -1.717,-1.484 -3.64,-1.484c-2.296,0.261 -3.509,1.157 -3.64,2.688c0.131,1.512 1.344,2.333 3.64,2.464c1.923,0 3.136,-0.504 3.64,-1.512Zm15.512,-6.412l0,12.152l-5.376,0l0,-18.564l5.376,-0.588l0,1.736c1.288,-1.139 2.819,-1.708 4.592,-1.708c2.427,0 4.275,0.728 5.544,2.184c1.269,1.475 1.904,3.173 1.904,5.096l-0,11.844l-5.348,0l0,-10.528c0,-1.269 -0.317,-2.259 -0.952,-2.968c-0.653,-0.691 -1.624,-1.055 -2.912,-1.092c-1.101,0.075 -2.044,0.887 -2.828,2.436Zm21.896,12.152l-5.348,0l0,-19.152l5.348,0l0,19.152Zm-5.544,-23.716c0,0.765 0.252,1.4 0.756,1.904c0.523,0.504 1.232,0.756 2.128,0.756c0.877,0 1.577,-0.252 2.1,-0.756c0.504,-0.504 0.756,-1.139 0.756,-1.904c0,-0.765 -0.252,-1.409 -0.756,-1.932c-0.523,-0.523 -1.241,-0.784 -2.156,-0.784c-0.859,0 -1.549,0.261 -2.072,0.784c-0.504,0.523 -0.756,1.167 -0.756,1.932Zm12.684,10.136l-2.1,-3.248c2.427,-1.531 5.236,-2.296 8.428,-2.296c2.296,0 4.116,0.635 5.46,1.904c1.325,1.288 1.988,3.201 1.988,5.74l0,11.48l-5.348,0l0,-1.512c-1.549,1.008 -2.949,1.512 -4.2,1.512c-2.557,0 -4.471,-0.541 -5.74,-1.624c-1.288,-1.083 -1.932,-2.576 -1.932,-4.48c0,-1.792 0.607,-3.388 1.82,-4.788c1.195,-1.4 3.145,-2.1 5.852,-2.1c1.232,0 2.632,0.383 4.2,1.148l0,-0.588c-0.019,-1.4 -1.036,-2.165 -3.052,-2.296c-2.296,0 -4.088,0.383 -5.376,1.148Zm8.428,7.84l0,-2.156c-0.504,-0.989 -1.717,-1.484 -3.64,-1.484c-2.296,0.261 -3.509,1.157 -3.64,2.688c0.131,1.512 1.344,2.333 3.64,2.464c1.923,0 3.136,-0.504 3.64,-1.512Z" style="fill:#fd2d01;fill-rule:nonzero;"/></g><g id="_4cb061db-73fa-16fe-1d0a-15980590225e" serif:id="4cb061db-73fa-16fe-1d0a-15980590225e"><g><g><g><path d="M148.5,239c31.751,-0 61.518,-12.19 83.914,-34.586c22.396,-22.396 34.586,-52.163 34.586,-83.914c-0,-31.751 -12.19,-61.518 -34.586,-83.914c-22.396,-22.396 -52.163,-34.586 -83.914,-34.586c-31.751,0 -61.518,12.19 -83.914,34.586c-22.396,22.396 -34.586,52.163 -34.586,83.914c0,31.751 12.19,61.518 34.586,83.914c22.396,22.396 52.163,34.586 83.914,34.586Zm6.804,-20.128c-2.268,0.284 -4.536,0.284 -6.804,0.284c-3.118,-0 -6.237,-0.284 -9.355,-0.567c-10.206,-15.876 -17.86,-32.886 -22.396,-50.746l50.178,0c1.701,4.253 4.819,8.222 8.505,10.773c-4.82,14.175 -11.623,27.499 -20.128,40.256Zm26.932,-5.67c5.386,-9.922 9.638,-19.844 13.04,-30.334c8.222,-1.701 14.742,-7.37 17.86,-15.025l21.829,0c-11.339,20.695 -30.333,36.854 -52.729,45.359Zm64.636,-92.702c0,9.355 -1.417,18.427 -3.685,27.215l-30.618,0c-1.701,-3.685 -4.536,-7.087 -7.937,-9.638c0.567,-6.237 0.85,-12.474 0.85,-18.711c0,-8.788 -0.567,-17.577 -1.701,-26.081l39.122,-0c2.835,8.504 3.969,17.86 3.969,27.215Zm-11.907,-47.343l-34.586,-0c-3.685,-15.592 -9.072,-30.334 -16.442,-44.509c21.545,8.222 39.689,24.381 51.028,44.509Zm-49.327,46.209c-0,4.819 -0.284,9.639 -0.567,14.458c-7.938,1.701 -14.459,6.804 -17.577,13.891l-54.714,0c-1.134,-8.504 -1.985,-17.293 -1.985,-25.798c0,-5.386 0.284,-10.772 0.851,-16.159c7.371,-1.417 13.324,-6.236 17.01,-12.473l55.281,-0c1.134,8.504 1.701,17.293 1.701,26.081Zm-44.509,-96.955c2.552,-0.283 5.103,-0.283 7.371,-0.283c2.835,-0 5.67,-0 8.505,0.283c10.206,15.876 17.86,32.886 22.396,50.746l-49.328,-0c-1.701,-4.82 -4.819,-9.072 -8.788,-12.19c5.103,-13.608 11.623,-26.365 19.844,-38.556Zm-26.932,5.67c-4.819,9.072 -9.071,18.711 -12.473,28.35c-8.789,1.701 -15.876,8.221 -18.711,16.442l-20.695,0c11.056,-20.128 29.483,-36.287 51.879,-44.792Zm-64.069,92.419c-0,-9.355 1.417,-18.711 3.969,-27.215l30.901,-0c1.701,3.118 4.252,5.953 7.087,8.221c-0.567,6.804 -1.134,13.608 -1.134,20.411c-0,8.789 0.567,17.294 1.701,25.798l-38.555,0c-2.835,-8.788 -3.969,-17.86 -3.969,-27.215Zm45.926,47.06c3.685,15.308 9.072,30.334 16.442,44.508c-21.545,-8.505 -39.405,-24.38 -50.461,-44.508l34.019,-0Z" style="fill:#ffd7d7;fill-rule:nonzero;"/></g></g></g></g></svg>