<?xml version="1.0" encoding="UTF-8" standalone="no"?><!DOCTYPE svg PUBLIC "-//W3C//DTD SVG 1.1//EN" "http://www.w3.org/Graphics/SVG/1.1/DTD/svg11.dtd"><svg width="100%" height="100%" viewBox="0 0 40 40" version="1.1" xmlns="http://www.w3.org/2000/svg" xmlns:xlink="http://www.w3.org/1999/xlink" xml:space="preserve" xmlns:serif="http://www.serif.com/" style="fill-rule:evenodd;clip-rule:evenodd;stroke-linejoin:round;stroke-miterlimit:2;"><path d="M4.444,11.111c0,1.219 1.004,2.222 2.223,2.222c1.219,0 2.222,-1.003 2.222,-2.222l-0,-2.222l2.222,-0c1.219,-0 2.222,-1.003 2.222,-2.222c0,-1.219 -1.003,-2.223 -2.222,-2.223l-2.222,0l-0,-2.222c-0,-1.219 -1.003,-2.222 -2.222,-2.222c-1.219,-0 -2.223,1.003 -2.223,2.222l0,2.222l-2.222,0c-1.219,0 -2.222,1.004 -2.222,2.223c-0,1.219 1.003,2.222 2.222,2.222l2.222,-0l0,2.222Zm28.889,-6.667l-13.333,0c-1.219,0 -2.222,1.004 -2.222,2.223c-0,1.219 1.003,2.222 2.222,2.222l13.333,-0c1.219,-0 2.223,1.003 2.223,2.222l-0,21.6l-3.489,-3.222c-0.41,-0.384 -0.95,-0.598 -1.511,-0.6l-19.445,-0c-1.219,-0 -2.222,-1.003 -2.222,-2.222l-0,-6.667c-0,-1.219 -1.003,-2.222 -2.222,-2.222c-1.219,-0 -2.223,1.003 -2.223,2.222l0,6.667c0,3.657 3.01,6.666 6.667,6.666l18.578,0l6.667,6.067c0.387,0.363 0.891,0.576 1.422,0.6c0.305,-0.003 0.606,-0.064 0.889,-0.178c0.811,-0.354 1.336,-1.16 1.333,-2.044l-0,-26.667c-0,-3.657 -3.009,-6.667 -6.667,-6.667Z" style="fill-rule:nonzero;"/></svg>