<?xml version="1.0" encoding="UTF-8" standalone="no"?><!DOCTYPE svg PUBLIC "-//W3C//DTD SVG 1.1//EN" "http://www.w3.org/Graphics/SVG/1.1/DTD/svg11.dtd"><svg width="100%" height="100%" viewBox="0 0 40 40" version="1.1" xmlns="http://www.w3.org/2000/svg" xmlns:xlink="http://www.w3.org/1999/xlink" xml:space="preserve" xmlns:serif="http://www.serif.com/" style="fill-rule:evenodd;clip-rule:evenodd;stroke-linejoin:round;stroke-miterlimit:2;"><g><path d="M20,40c-0.387,-0 -0.714,-0.156 -0.982,-0.469l-13.929,-15.677c-0.149,-0.139 -0.353,-0.364 -0.614,-0.677c-0.26,-0.312 -0.673,-0.881 -1.238,-1.706c-0.566,-0.824 -1.072,-1.671 -1.518,-2.539c-0.447,-0.868 -0.845,-1.918 -1.194,-3.151c-0.35,-1.232 -0.525,-2.43 -0.525,-3.594c0,-3.819 0.945,-6.805 2.835,-8.958c1.89,-2.153 4.501,-3.229 7.835,-3.229c0.922,-0 1.863,0.187 2.823,0.56c0.96,0.373 1.853,0.877 2.679,1.51c0.826,0.634 1.536,1.229 2.132,1.784c0.595,0.556 1.16,1.146 1.696,1.771c0.536,-0.625 1.101,-1.215 1.696,-1.771c0.596,-0.555 1.306,-1.15 2.132,-1.784c0.826,-0.633 1.719,-1.137 2.679,-1.51c0.96,-0.373 1.901,-0.56 2.823,-0.56c3.334,-0 5.945,1.076 7.835,3.229c1.89,2.153 2.835,5.139 2.835,8.958c-0,3.837 -1.704,7.744 -5.112,11.719l-13.906,15.625c-0.268,0.313 -0.595,0.469 -0.982,0.469" style="fill-rule:nonzero;"/></g></svg>