<?xml version="1.0" encoding="UTF-8" standalone="no"?><!DOCTYPE svg PUBLIC "-//W3C//DTD SVG 1.1//EN" "http://www.w3.org/Graphics/SVG/1.1/DTD/svg11.dtd"><svg width="100%" height="100%" viewBox="0 0 300 300" version="1.1" xmlns="http://www.w3.org/2000/svg" xmlns:xlink="http://www.w3.org/1999/xlink" xml:space="preserve" xmlns:serif="http://www.serif.com/" style="fill-rule:evenodd;clip-rule:evenodd;stroke-linejoin:round;stroke-miterlimit:2;"><g id="_640fb903-7c97-3a8b-d0a7-369102908d0a" serif:id="640fb903-7c97-3a8b-d0a7-369102908d0a"><g><g><g><path d="M150,300c40.191,0 77.871,-15.431 106.22,-43.78c28.349,-28.349 43.78,-66.029 43.78,-106.22c-0,-40.191 -15.431,-77.871 -43.78,-106.22c-28.349,-28.349 -66.029,-43.78 -106.22,-43.78c-40.191,-0 -77.871,15.431 -106.22,43.78c-28.349,28.349 -43.78,66.029 -43.78,106.22c-0,40.191 15.431,77.871 43.78,106.22c28.349,28.349 66.029,43.78 106.22,43.78Zm8.612,-25.478c-2.87,0.358 -5.741,0.358 -8.612,0.358c-3.947,0 -7.895,-0.358 -11.842,-0.717c-12.919,-20.096 -22.608,-41.627 -28.349,-64.235l63.516,0c2.153,5.383 6.101,10.407 10.766,13.637c-6.101,17.942 -14.713,34.808 -25.479,50.957Zm34.091,-7.177c6.819,-12.56 12.201,-25.12 16.508,-38.398c10.406,-2.153 18.66,-9.33 22.607,-19.019l27.632,0c-14.354,26.196 -38.397,46.651 -66.747,57.417Zm81.819,-117.345c-0,11.842 -1.795,23.325 -4.666,34.45l-38.756,-0c-2.153,-4.665 -5.741,-8.972 -10.047,-12.201c0.717,-7.895 1.076,-15.79 1.076,-23.684c0,-11.125 -0.718,-22.249 -2.153,-33.015l49.522,0c3.588,10.766 5.024,22.608 5.024,34.45Zm-15.072,-59.928l-43.78,-0c-4.665,-19.737 -11.483,-38.397 -20.814,-56.34c27.273,10.407 50.24,30.861 64.594,56.34Zm-62.44,58.493c-0,6.1 -0.359,12.201 -0.718,18.301c-10.048,2.153 -18.302,8.612 -22.249,17.584l-69.258,-0c-1.436,-10.766 -2.512,-21.89 -2.512,-32.656c-0,-6.818 0.359,-13.636 1.076,-20.454c9.33,-1.795 16.866,-7.895 21.531,-15.79l69.976,0c1.436,10.766 2.154,21.89 2.154,33.015Zm-56.34,-122.728c3.229,-0.359 6.459,-0.359 9.33,-0.359c3.588,0 7.177,0 10.766,0.359c12.918,20.096 22.607,41.627 28.349,64.235l-62.44,-0c-2.153,-6.101 -6.101,-11.483 -11.125,-15.431c6.46,-17.225 14.713,-33.373 25.12,-48.804Zm-34.091,7.177c-6.101,11.484 -11.483,23.685 -15.79,35.886c-11.124,2.153 -20.095,10.406 -23.684,20.813l-26.196,-0c13.995,-25.479 37.321,-45.933 65.67,-56.699Zm-81.101,116.986c0,-11.842 1.795,-23.684 5.024,-34.45l39.115,0c2.153,3.948 5.383,7.536 8.971,10.407c-0.717,8.612 -1.435,17.225 -1.435,25.837c0,11.125 0.718,21.89 2.153,32.656l-48.804,-0c-3.588,-11.125 -5.024,-22.608 -5.024,-34.45Zm58.134,59.569c4.665,19.378 11.484,38.398 20.814,56.34c-27.273,-10.765 -49.881,-30.861 -63.876,-56.34l43.062,0Z" style="fill-rule:nonzero;"/></g></g></g></g></svg>