<?xml version="1.0" encoding="UTF-8" standalone="no"?><!DOCTYPE svg PUBLIC "-//W3C//DTD SVG 1.1//EN" "http://www.w3.org/Graphics/SVG/1.1/DTD/svg11.dtd"><svg width="100%" height="100%" viewBox="0 0 40 40" version="1.1" xmlns="http://www.w3.org/2000/svg" xmlns:xlink="http://www.w3.org/1999/xlink" xml:space="preserve" xmlns:serif="http://www.serif.com/" style="fill-rule:evenodd;clip-rule:evenodd;stroke-linejoin:round;stroke-miterlimit:2;"><g><path d="M40,19.224l-8.78,9.226l0,-4.059l-10.061,-0l0,-9.976l10.065,-0l0,-4.417l8.776,9.226Zm-13.29,-12.549l-8.114,0l-0,-3.196l8.024,0c1.478,0 2.674,1.478 2.674,3.301l-0,5.725l-2.588,-0l0.004,-5.83Zm-13.167,33.325l-11.739,-5.712c-1,0 -1.804,-1.277 -1.804,-2.856l-0,-22.864c-0,-1.579 0.804,-2.856 1.804,-2.856l11.739,-5.712c0.996,-0 1.808,1.278 1.808,2.856l0,34.288c0,1.578 -0.812,2.856 -1.808,2.856Zm-2.972,-23.336c-1.228,0 -2.228,1.069 -2.228,2.381c-0,1.317 1,2.381 2.228,2.381c1.233,-0 2.229,-1.064 2.229,-2.381c-0,-1.312 -0.996,-2.381 -2.229,-2.381Zm16.139,9.152l2.588,0l-0,7.4c-0,1.827 -1.196,3.305 -2.674,3.305l-8.028,-0l-0,-3.196l8.114,-0l0,-7.509Z" style="fill-rule:nonzero;"/></g></svg>