<?xml version="1.0" encoding="utf-8"?>
<!-- Svg Vector Icons : http://www.onlinewebfonts.com/icon -->
<!DOCTYPE svg PUBLIC "-//W3C//DTD SVG 1.1//EN" "http://www.w3.org/Graphics/SVG/1.1/DTD/svg11.dtd">
<svg version="1.1" xmlns="http://www.w3.org/2000/svg" xmlns:xlink="http://www.w3.org/1999/xlink" x="0px" y="0px" viewBox="0 0 1000 1000" enable-background="new 0 0 1000 1000" xml:space="preserve">
<metadata> Svg Vector Icons : http://www.onlinewebfonts.com/icon </metadata>
<g><path fill="#ebc7c7" d="M769.5,276.4c0,44.9-11.1,87.3-30.6,124.5C552,404.7,401.7,557.3,401.7,745.1c0,95.4,38.8,181.7,101.5,244.1H160.4v-1.3c-83,0-150.4-67.4-150.4-150.6c0-57.1,31.7-106.7,78.5-132.3l0,0l0,0c45.7-26.3,100.1-45.8,204.5-82.6l0,0c38.4-12,53.2-34.4,53.7-67.3c0.8-56-21.3-58.5-69.7-125.3l0,0c-30.4-43.5-48.2-96.3-48.2-153.4C228.8-77.7,769.5-77.7,769.5,276.4z"/><path fill="#ebc7c7" d="M745.9,501C880.7,501,990,610.3,990,745.1c0,134.8-109.3,244.1-244.1,244.1S501.9,879.9,501.9,745.1C501.9,610.3,611.2,501,745.9,501L745.9,501z M598.3,776.2l91.2,91.2c17.4,17.4,45.5,17.4,62.9,0l139.6-139.6c17.4-17.4,17.4-45.5,0-62.9c-17.4-17.4-45.5-17.4-62.9,0L721,773.2l-59.8-59.8c-17.4-17.4-45.5-17.4-62.9,0C581,730.7,581,758.9,598.3,776.2z"/></g>
</svg>