<?xml version="1.0" encoding="UTF-8" standalone="no"?><!DOCTYPE svg PUBLIC "-//W3C//DTD SVG 1.1//EN" "http://www.w3.org/Graphics/SVG/1.1/DTD/svg11.dtd"><svg width="100%" height="100%" viewBox="0 0 40 40" version="1.1" xmlns="http://www.w3.org/2000/svg" xmlns:xlink="http://www.w3.org/1999/xlink" xml:space="preserve" xmlns:serif="http://www.serif.com/" style="fill-rule:evenodd;clip-rule:evenodd;stroke-linejoin:round;stroke-miterlimit:2;"><g><path d="M31,10.873c0,1.833 -0.453,3.564 -1.249,5.082c-7.629,0.155 -13.763,6.384 -13.763,14.049c-0,3.894 1.583,7.416 4.143,9.963l-13.992,0l-0,-0.053c-3.388,0 -6.139,-2.751 -6.139,-6.147c-0,-2.33 1.294,-4.355 3.204,-5.4c1.865,-1.073 4.086,-1.869 8.347,-3.371c1.567,-0.49 2.171,-1.404 2.192,-2.747c0.033,-2.286 -0.87,-2.388 -2.845,-5.114c-1.241,-1.776 -1.967,-3.931 -1.967,-6.262c-0,-14.453 22.069,-14.453 22.069,0Z" style="fill-rule:nonzero;"/><path d="M30.037,20.041c5.502,-0 9.963,4.461 9.963,9.963c-0,5.502 -4.461,9.963 -9.963,9.963c-5.502,0 -9.959,-4.461 -9.959,-9.963c-0,-5.502 4.461,-9.963 9.959,-9.963Zm-6.025,11.232l3.723,3.723c0.71,0.71 1.857,0.71 2.567,-0l5.698,-5.698c0.71,-0.71 0.71,-1.857 -0,-2.567c-0.71,-0.711 -1.857,-0.711 -2.567,-0l-4.413,4.42l-2.44,-2.441c-0.711,-0.71 -1.858,-0.71 -2.568,0c-0.706,0.706 -0.706,1.857 0,2.563Z" style="fill-rule:nonzero;"/></g></svg>