<?xml version="1.0" encoding="UTF-8" standalone="no"?><!DOCTYPE svg PUBLIC "-//W3C//DTD SVG 1.1//EN" "http://www.w3.org/Graphics/SVG/1.1/DTD/svg11.dtd"><svg width="100%" height="100%" viewBox="0 0 40 40" version="1.1" xmlns="http://www.w3.org/2000/svg" xmlns:xlink="http://www.w3.org/1999/xlink" xml:space="preserve" xmlns:serif="http://www.serif.com/" style="fill-rule:evenodd;clip-rule:evenodd;stroke-linejoin:round;stroke-miterlimit:2;"><path d="M36.25,0l-32.5,0c-2.07,0 -3.75,1.679 -3.75,3.75l-0,32.5c-0,2.071 1.68,3.75 3.75,3.75l32.5,0c2.071,0 3.75,-1.679 3.75,-3.75l0,-32.5c0,-2.071 -1.678,-3.75 -3.75,-3.75Zm-32.5,2.5l32.5,-0c0.69,-0 1.25,0.561 1.25,1.25l-0,25.624l-4.197,0l-4.428,-9.247c-0.186,-0.388 -0.558,-0.654 -0.987,-0.703c-0.423,-0.046 -0.849,0.127 -1.118,0.464l-2.856,3.583l-6.761,-11.006c-0.238,-0.387 -0.675,-0.61 -1.124,-0.594c-0.455,0.022 -0.863,0.29 -1.063,0.699l-8.234,16.804l-4.232,0l0,-25.624c0,-0.689 0.562,-1.25 1.25,-1.25Zm5.769,26.869l6.693,-13.66l6.504,10.588c0.213,0.348 0.582,0.569 0.989,0.594c0.414,0.025 0.799,-0.151 1.053,-0.468l2.724,-3.417l3.048,6.363l-21.011,0Zm26.731,8.131l-32.5,-0c-0.688,-0 -1.25,-0.561 -1.25,-1.25l0,-4.376l35,0l0,4.376c0,0.689 -0.56,1.25 -1.25,1.25Zm-7.498,-21.25c2.762,-0 5,-2.239 5,-5c0,-2.761 -2.238,-5 -5,-5c-2.761,-0 -5,2.239 -5,5c0,2.761 2.239,5 5,5Zm0,-7.5c1.379,-0 2.5,1.121 2.5,2.5c0,1.379 -1.121,2.5 -2.5,2.5c-1.379,-0 -2.499,-1.121 -2.499,-2.5c-0,-1.379 1.12,-2.5 2.499,-2.5Z" style="fill-rule:nonzero;"/></svg>