<?xml version="1.0" encoding="UTF-8" standalone="no"?><!DOCTYPE svg PUBLIC "-//W3C//DTD SVG 1.1//EN" "http://www.w3.org/Graphics/SVG/1.1/DTD/svg11.dtd"><svg width="100%" height="100%" viewBox="0 0 40 40" version="1.1" xmlns="http://www.w3.org/2000/svg" xmlns:xlink="http://www.w3.org/1999/xlink" xml:space="preserve" xmlns:serif="http://www.serif.com/" style="fill-rule:evenodd;clip-rule:evenodd;stroke-linejoin:round;stroke-miterlimit:2;"><g><g><g><path d="M35.155,4.979l-8.903,-0c-0.314,-2.791 -2.998,-4.979 -6.252,-4.979c-3.254,0 -5.938,2.188 -6.252,4.979l-8.903,-0c-2.672,-0 -4.845,1.912 -4.845,4.262c-0,2.279 2.044,4.146 4.604,4.257l0,21.355c0,2.838 2.625,5.147 5.851,5.147l19.09,0c3.226,0 5.851,-2.309 5.851,-5.147l-0,-21.355c2.56,-0.111 4.604,-1.978 4.604,-4.257c-0,-2.35 -2.173,-4.262 -4.845,-4.262Zm-15.155,-2.362c1.611,0 2.956,1.019 3.249,2.362l-6.498,-0c0.293,-1.343 1.638,-2.362 3.249,-2.362Zm12.421,32.236c-0,1.395 -1.29,2.53 -2.876,2.53l-19.09,-0c-1.586,-0 -2.876,-1.135 -2.876,-2.53l0,-21.35l24.842,-0l-0,21.35Zm2.734,-23.967l-30.31,-0c-1.031,-0 -1.87,-0.738 -1.87,-1.645c-0,-0.907 0.839,-1.645 1.87,-1.645l30.31,0c1.031,0 1.87,0.738 1.87,1.645c-0,0.907 -0.839,1.645 -1.87,1.645Z" style="fill-rule:nonzero;"/><path d="M20,34.227c0.821,-0 1.487,-0.586 1.487,-1.309l0,-15.154c0,-0.723 -0.666,-1.309 -1.487,-1.309c-0.822,0 -1.488,0.586 -1.488,1.309l0,15.154c0,0.723 0.666,1.309 1.488,1.309Z" style="fill-rule:nonzero;"/><path d="M27.677,34.227c0.822,-0 1.488,-0.586 1.488,-1.309l-0,-15.154c-0,-0.723 -0.666,-1.309 -1.488,-1.309c-0.821,0 -1.487,0.586 -1.487,1.309l0,15.154c0,0.723 0.666,1.309 1.487,1.309Z" style="fill-rule:nonzero;"/><path d="M12.322,34.227c0.822,-0 1.488,-0.586 1.488,-1.309l-0,-15.154c-0,-0.723 -0.666,-1.309 -1.488,-1.309c-0.821,0 -1.487,0.586 -1.487,1.309l-0,15.154c-0,0.723 0.666,1.309 1.487,1.309Z" style="fill-rule:nonzero;"/></g></g></g></svg>