<?xml version="1.0" encoding="utf-8"?>
<!-- Svg Vector Icons : http://www.onlinewebfonts.com/icon -->
<!DOCTYPE svg PUBLIC "-//W3C//DTD SVG 1.1//EN" "http://www.w3.org/Graphics/SVG/1.1/DTD/svg11.dtd">
<svg version="1.1" xmlns="http://www.w3.org/2000/svg" xmlns:xlink="http://www.w3.org/1999/xlink" x="0px" y="0px" viewBox="0 0 1000 1000" enable-background="new 0 0 1000 1000" xml:space="preserve">
<metadata> Svg Vector Icons : http://www.onlinewebfonts.com/icon </metadata>
<g><g transform="translate(0.000000,511.000000) scale(0.100000,-0.100000)"><path fill="#ebc7c7" d="M7813.9,3387.3l-250.2-10.2v-316.6v-319.2l584.7-5.1l587.3-7.7l-1802.7-1864c-990.7-1023.9-1807.8-1864-1818-1864c-7.7,0-383,380.5-832.4,842.6c-449.4,464.7-829.9,842.6-847.7,842.6c-15.3,0-773.7-768.6-1682.7-1708.2L100-2728.1l229.8-229.8l227.3-227.2L1987-1706.8C2770.9-892.2,3422-223.2,3429.6-223.2c10.2,2.5,388.1-383,842.6-852.9c454.5-469.8,832.4-855.4,840.1-855.4c10.2,0,926.9,942.2,2042.7,2093.8c1113.3,1151.6,2030,2088.7,2037.6,2081c7.7-7.7,28.1-268.1,46-577.1c17.9-309,35.8-569.4,43.4-577.1c7.7-5.1,150.7-5.1,316.6,5.1l301.3,17.9l-56.2,1026.5c-30.7,561.7-56.2,1077.5-56.2,1146.5l-2.5,120l-860.5-5.1C8449.7,3397.5,7949.2,3389.9,7813.9,3387.3z"/></g></g>
</svg>